<?xml version="1.0" encoding="utf-8"?>
<!-- Generator: Adobe Illustrator 21.1.0, SVG Export Plug-In . SVG Version: 6.00 Build 0)  -->
<svg version="1.1" id="Capa_1" xmlns="http://www.w3.org/2000/svg" xmlns:xlink="http://www.w3.org/1999/xlink" x="0px" y="0px"
	 viewBox="0 0 612 612" style="enable-background:new 0 0 612 612;" xml:space="preserve">
<style type="text/css">
	.st0{fill:url(#SVGID_1_);}
</style>
<g>
	<g id="_x32__26_">
		<g>
			<linearGradient id="SVGID_1_" gradientUnits="userSpaceOnUse" x1="0" y1="306" x2="612" y2="306">
				<stop  offset="0" style="stop-color:#00CC66"/>
				<stop  offset="1" style="stop-color:#00994D"/>
			</linearGradient>
			<path class="st0" d="M401.6,320.1H210.4c-10.6,0-22.1,13.6-22.1,24.1s11.6,24.1,22.1,24.1h191.2c10.6,0,22.1-13.6,22.1-24.1
				S412.2,320.1,401.6,320.1z M439.9,205.4H172.1c-10.6,0-22.1,13.6-22.1,24.1s11.6,24.1,22.1,24.1h267.8
				c10.6,0,22.1-13.6,22.1-24.1S450.4,205.4,439.9,205.4z M306,0C137,0,0,119.9,0,267.8c0,84.5,44.8,159.8,114.8,208.8V612l134-81.3
				c18.6,3.1,37.6,4.8,57.2,4.8c169,0,306-119.9,306-267.8S475,0,306,0z M306.6,484.2c-20.9,0-41.2-2.4-60.6-6.6l-84.5,50.7
				l1.1-83.1C97.8,406.3,55.3,342,55.3,269.1C55.2,150.3,167.8,54,306.6,54S558,150.3,558,269.2S445.4,484.2,306.6,484.2z"/>
		</g>
	</g>
</g>
</svg>
